<svg xmlns="http://www.w3.org/2000/svg" xmlns:xlink="http://www.w3.org/1999/xlink" width="1920" zoomAndPan="magnify" viewBox="0 0 1440 809.999993" height="1080" preserveAspectRatio="xMidYMid meet" version="1.0"><defs><clipPath id="591a0ab8ab"><path d="M 616 289 L 831 289 L 831 530 L 616 530 Z M 616 289 " clip-rule="nonzero"/></clipPath><clipPath id="7fd470664f"><path d="M 675.75 252.914062 L 874.261719 369.566406 L 764.070312 557.085938 L 565.558594 440.433594 Z M 675.75 252.914062 " clip-rule="nonzero"/></clipPath><clipPath id="de75d3ab44"><path d="M 675.75 252.914062 L 874.261719 369.566406 L 764.070312 557.085938 L 565.558594 440.433594 Z M 675.75 252.914062 " clip-rule="nonzero"/></clipPath><clipPath id="d456bc284f"><path d="M 675.75 252.914062 L 874.261719 369.566406 L 764.070312 557.085938 L 565.558594 440.433594 Z M 675.75 252.914062 " clip-rule="nonzero"/></clipPath></defs><g clip-path="url(#591a0ab8ab)"><g clip-path="url(#7fd470664f)"><g clip-path="url(#de75d3ab44)"><g clip-path="url(#d456bc284f)"><path fill="#000000" d="M 809.910156 331.996094 C 809.503906 331.765625 809.074219 331.542969 808.644531 331.332031 C 790.542969 324.515625 771.289062 336.597656 760.964844 351.167969 C 750.875 363.960938 746.488281 385.449219 759.921875 397.539062 C 761.890625 399.261719 764.304688 400.421875 766.8125 401.105469 C 788.820312 405.738281 809.855469 388.777344 817.804688 369.164062 C 823.882812 357.050781 822.554688 339.210938 809.910156 331.996094 Z M 739.808594 291.808594 C 729.441406 286.054688 715.386719 291.75 708.039062 300.550781 C 693.273438 317.863281 687.949219 347.027344 704.460938 364.949219 C 706.105469 366.46875 708.027344 367.65625 710.101562 368.476562 C 725.023438 374.195312 739.742188 362.328125 746.410156 349.679688 C 755.546875 333.199219 758.152344 309.46875 743.988281 295 C 742.6875 293.683594 741.289062 292.628906 739.808594 291.808594 Z M 821.75 413.773438 C 803.453125 404.445312 780.960938 414.980469 769.546875 430.449219 C 760.21875 440.964844 757.207031 460.585938 770.203125 469.5 C 789.234375 480.371094 814.003906 467.734375 824.757812 450.65625 C 832.710938 439.855469 834.148438 421.914062 821.75 413.773438 Z M 664.742188 326.785156 C 657.261719 322.300781 647.214844 322.460938 640.261719 328.671875 C 621.679688 345.289062 619.609375 378.949219 638.738281 395.976562 C 646.867188 402.835938 658.890625 400.554688 666.046875 393.511719 C 681.304688 378.421875 683.75 351.925781 672.007812 334.109375 C 670.207031 331.015625 667.667969 328.542969 664.742188 326.785156 Z M 722.410156 410.050781 C 707.652344 401.417969 688.277344 400.109375 672.179688 405.648438 C 654.238281 412.582031 636.90625 422.738281 623.964844 437.195312 C 613.015625 446.636719 614.132812 465.566406 626.6875 473.054688 C 641.601562 482.386719 660.761719 479.625 676.292969 487.710938 C 690.234375 493.273438 697.773438 506.667969 706.714844 517.785156 C 714.042969 527.730469 728.519531 534.078125 739.714844 526.464844 C 749.96875 518.023438 750.917969 503.15625 751.734375 490.789062 C 751.0625 469.542969 750.15625 447.09375 739.808594 427.992188 C 735.722656 420.230469 729.621094 414.265625 722.410156 410.050781 Z M 722.410156 410.050781 " fill-opacity="1" fill-rule="nonzero"/></g></g></g></g></svg>